<?xml version="1.0" encoding="UTF-8"?>
<svg xmlns="http://www.w3.org/2000/svg" xmlns:xlink="http://www.w3.org/1999/xlink" width="200px" height="300px" viewBox="0 0 200 300" version="1.1">
<g id="surface1">
<path style=" stroke:none;fill-rule:nonzero;fill:rgb(0%,8.235294%,47.843137%);fill-opacity:1;" d="M 52 13.863281 C 49.757812 13.863281 47.589844 13.863281 45.347656 13.863281 C 45.347656 15.453125 45.347656 17.046875 45.347656 18.410156 C 45.347656 36.136719 45.347656 54.089844 45.347656 71.816406 C 45.347656 75.453125 45.277344 76.589844 44.867188 76.589844 C 42.265625 76.363281 39.664062 76.363281 37.058594 76.589844 C 36.652344 76.589844 36.578125 75.226562 36.578125 71.816406 C 36.601562 54.089844 36.578125 36.136719 36.578125 18.410156 C 36.578125 16.816406 36.554688 15.453125 36.554688 13.863281 C 34.335938 13.863281 32.191406 13.863281 29.953125 13.863281 C 29.953125 15.683594 29.953125 16.816406 29.953125 18.183594 C 29.953125 36.136719 29.953125 54.316406 29.953125 72.273438 C 29.953125 75.683594 29.832031 76.589844 29.492188 76.589844 C 28.652344 76.363281 27.78125 76.589844 26.941406 76.589844 C 26.699219 76.589844 26.601562 77.273438 26.601562 79.773438 C 26.601562 92.273438 26.601562 105 26.601562 117.5 C 26.601562 120 26.699219 120.683594 26.941406 120.683594 C 27.757812 120.683594 28.601562 120.683594 29.421875 120.683594 C 29.953125 120.683594 29.953125 120.683594 29.953125 125.683594 C 29.953125 160.453125 29.953125 195.226562 29.953125 230 C 29.953125 236.589844 29.976562 243.410156 30.046875 250 C 30.242188 270.910156 31.445312 285 33.589844 291.136719 C 35.976562 297.953125 38.363281 295 40.746094 291.589844 C 40.746094 275 40.746094 258.863281 40.746094 242.273438 C 40.53125 242.273438 40.335938 242.273438 40.144531 242.273438 C 39.492188 242.5 38.84375 242.953125 38.191406 242.953125 C 37.230469 242.953125 36.699219 237.953125 36.625 229.089844 C 36.601562 226.589844 36.578125 224.316406 36.578125 221.816406 C 36.578125 189.546875 36.578125 157.273438 36.578125 125.226562 C 36.578125 121.363281 36.722656 120.683594 37.085938 120.683594 C 39.664062 120.910156 42.242188 120.683594 44.820312 120.683594 C 45.347656 120.683594 45.347656 120.683594 45.347656 125.683594 C 45.347656 160.683594 45.347656 195.453125 45.347656 230.453125 C 45.347656 236.589844 45.375 242.726562 45.421875 248.636719 C 45.613281 271.816406 46.867188 286.136719 49.277344 292.046875 C 51.566406 297.953125 53.855469 295 56.167969 291.589844 C 56.167969 275.226562 56.167969 258.863281 56.167969 242.273438 C 55.953125 242.273438 55.757812 242.273438 55.566406 242.273438 C 54.914062 242.5 54.265625 242.953125 53.613281 242.953125 C 52.625 242.953125 52.074219 237.726562 52.023438 228.636719 C 52 226.363281 52 224.316406 52 222.046875 C 52 189.773438 52 157.273438 52 125 C 52 123.636719 52 122.5 52 120.453125 C 53.519531 120.453125 55.011719 120.453125 56.480469 120.453125 C 56.480469 105.683594 56.480469 91.363281 56.480469 76.589844 C 54.988281 76.589844 53.519531 76.589844 52 76.589844 C 52 55.226562 52 34.546875 52 13.863281 Z M 52 13.863281 "/>
<path style=" stroke:none;fill-rule:nonzero;fill:rgb(0%,8.235294%,47.843137%);fill-opacity:1;" d="M 108.53125 111.363281 C 106.699219 85.226562 104.097656 71.589844 100.796875 70.226562 C 98.265625 69.316406 96 76.136719 94.242188 94.089844 C 94.191406 94.546875 94.121094 95 93.976562 96.136719 C 93.976562 93.636719 93.976562 92.273438 93.976562 90.910156 C 93.976562 62.046875 93.976562 33.183594 93.976562 4.089844 C 93.976562 0.683594 93.878906 -0.226562 93.519531 -0.226562 C 91.636719 0 89.757812 0 87.878906 -0.226562 C 87.492188 -0.226562 87.421875 0.910156 87.421875 4.316406 C 87.421875 99.089844 87.421875 193.636719 87.421875 288.410156 C 87.421875 289.773438 87.445312 291.136719 87.445312 292.5 C 89.613281 292.5 91.734375 292.5 93.878906 292.5 C 93.808594 285.226562 93.710938 277.953125 93.636719 270.226562 C 93.757812 271.136719 93.78125 271.136719 93.808594 271.363281 C 95.375 288.183594 97.347656 296.816406 99.6875 298.183594 C 101.613281 299.316406 103.46875 296.589844 105.15625 287.5 C 107.253906 276.363281 108.554688 258.863281 109.347656 237.953125 C 110.386719 211.363281 110.578125 183.636719 110.191406 155.683594 C 109.976562 140.226562 109.46875 125 108.53125 111.363281 Z M 103.832031 182.046875 C 103.832031 197.273438 103.6875 211.136719 103.109375 224.316406 C 102.53125 237.726562 101.589844 247.726562 100.023438 250.683594 C 97.566406 255.453125 95.347656 247.046875 94.457031 221.816406 C 93.566406 196.589844 93.519531 170.910156 94.457031 145.683594 C 95.375 120.910156 98.144531 110 100.746094 119.546875 C 102.144531 124.773438 102.890625 135.453125 103.347656 148.410156 C 103.710938 159.773438 103.832031 171.363281 103.832031 182.046875 Z M 103.832031 182.046875 "/>
<path style=" stroke:none;fill-rule:nonzero;fill:rgb(0%,8.235294%,47.843137%);fill-opacity:1;" d="M 178.769531 156.816406 C 178.601562 154.316406 178.625 152.726562 178.84375 150.683594 C 180.097656 138.636719 181.347656 126.363281 182.601562 114.089844 C 183.855469 101.816406 185.132812 89.546875 186.457031 76.363281 C 186.21875 76.363281 186.074219 76.363281 185.925781 76.363281 C 183.566406 76.363281 181.179688 76.363281 178.820312 76.363281 C 178.507812 76.363281 178.265625 77.273438 178.046875 79.546875 C 175.78125 102.273438 173.492188 125 171.230469 147.726562 C 171.132812 148.636719 171.035156 149.316406 170.867188 150.910156 C 170.867188 100 170.867188 50.226562 170.867188 0.226562 C 170.699219 0.226562 170.578125 0 170.457031 0 C 168.554688 0 166.652344 0 164.746094 0 C 164.363281 0 164.265625 1.136719 164.265625 4.546875 C 164.265625 99.316406 164.265625 193.863281 164.265625 288.636719 C 164.265625 290 164.289062 291.363281 164.289062 292.726562 C 166.480469 292.726562 168.625 292.726562 170.820312 292.726562 C 170.820312 290.910156 170.820312 289.316406 170.820312 287.726562 C 170.820312 268.410156 170.820312 248.863281 170.820312 229.546875 C 170.820312 226.816406 170.914062 224.773438 171.132812 222.953125 C 171.808594 217.046875 172.457031 210.910156 173.132812 205 C 173.324219 203.183594 173.542969 201.363281 173.78125 199.316406 C 173.878906 200.910156 173.976562 202.046875 174.046875 203.410156 C 175.855469 232.046875 177.664062 260.683594 179.46875 289.316406 C 179.664062 292.273438 179.855469 293.183594 180.191406 293.183594 C 182.480469 292.953125 184.746094 293.183594 187.035156 293.183594 C 187.179688 293.183594 187.300781 293.183594 187.492188 293.183594 C 187.398438 291.589844 187.347656 290.683594 187.277344 289.546875 C 184.457031 245.226562 181.613281 200.910156 178.769531 156.816406 Z M 178.769531 156.816406 "/>
<path style=" stroke:none;fill-rule:nonzero;fill:rgb(0%,8.235294%,47.843137%);fill-opacity:1;" d="M 130.21875 77.046875 C 126.964844 67.046875 123.636719 66.816406 120.363281 77.273438 C 117.058594 87.726562 114.796875 108.636719 113.664062 139.773438 C 112.722656 165.226562 112.652344 191.363281 113.277344 217.726562 C 114.144531 253.863281 116.457031 278.636719 120.144531 291.589844 C 122.914062 301.363281 125.757812 302.273438 128.625 296.589844 C 131.710938 290.453125 134.167969 275.453125 135.832031 249.773438 C 137.109375 229.773438 137.613281 207.953125 137.664062 183.863281 C 137.636719 172.273438 137.492188 160 137.132812 147.953125 C 136.097656 113.410156 133.902344 88.410156 130.21875 77.046875 Z M 130.097656 219.089844 C 128.410156 256.589844 123.902344 254.773438 121.902344 238.183594 C 120.699219 228.183594 120.144531 215.226562 119.902344 200.683594 C 119.808594 195.226562 119.78125 189.773438 119.757812 186.363281 C 119.808594 171.589844 119.953125 159.316406 120.507812 147.5 C 121.566406 125.683594 123.613281 118.183594 125.832031 119.546875 C 128.046875 121.136719 129.46875 132.726562 130.21875 151.816406 C 131.058594 174.546875 131.085938 197.046875 130.097656 219.089844 Z M 130.097656 219.089844 "/>
<path style=" stroke:none;fill-rule:nonzero;fill:rgb(0%,8.235294%,47.843137%);fill-opacity:1;" d="M 18 79.089844 C 16.191406 72.273438 14.3125 69.773438 12.386719 69.773438 C 12.386719 69.316406 9.925781 71.136719 8.722656 73.636719 C 4.769531 82.726562 2.023438 104.773438 0.722656 141.363281 C -0.21875 167.726562 -0.242188 194.773438 0.53125 221.816406 C 1.445312 254.546875 3.613281 277.5 6.941406 290 C 10.167969 302.046875 13.46875 302.953125 16.796875 293.863281 C 19.976562 285.226562 22.265625 266.589844 23.589844 238.183594 C 25.203125 203.183594 25.203125 167.726562 23.6875 132.726562 C 22.601562 107.5 20.699219 89.546875 18 79.089844 Z M 17.109375 221.816406 C 16.097656 240.683594 14.457031 250 12.21875 249.316406 C 10.023438 248.636719 8.480469 238.410156 7.589844 219.546875 C 6.964844 205.910156 6.820312 191.589844 6.914062 177.046875 C 6.988281 167.5 7.179688 157.953125 7.589844 149.089844 C 8.625 126.589844 10.699219 118.410156 12.988281 120.226562 C 15.46875 122.273438 16.867188 136.589844 17.542969 157.726562 C 17.832031 166.589844 17.902344 176.136719 17.976562 180.683594 C 17.925781 197.953125 17.710938 210.226562 17.109375 221.816406 Z M 17.109375 221.816406 "/>
<path style=" stroke:none;fill-rule:nonzero;fill:rgb(0%,8.235294%,47.843137%);fill-opacity:1;" d="M 76.410156 75.683594 C 73.375 67.273438 70.289062 67.273438 67.253906 76.136719 C 64.191406 85 61.925781 103.183594 60.601562 131.136719 C 59.78125 148.183594 59.492188 166.136719 59.492188 185.910156 C 59.519531 189.316406 59.519531 193.863281 59.566406 198.636719 C 59.589844 202.273438 59.636719 205.910156 59.710938 209.546875 C 60.363281 245.910156 62.335938 273.183594 65.953125 288.410156 C 69.277344 302.5 72.746094 303.636719 76.242188 294.316406 C 79.421875 285.910156 81.734375 267.046875 83.085938 238.636719 C 84.652344 205.453125 84.675781 171.363281 83.375 137.5 C 82.121094 105.910156 79.808594 85 76.410156 75.683594 Z M 76.890625 214.089844 C 76.046875 237.5 74.167969 250 71.6875 249.316406 C 69.277344 248.863281 67.445312 235.226562 66.746094 211.816406 C 66.480469 202.953125 66.289062 184.546875 66.335938 184.546875 C 66.335938 172.046875 66.507812 160 67.035156 148.410156 C 68.074219 126.136719 70.144531 118.410156 72.386719 119.773438 C 74.601562 121.363281 76.023438 132.953125 76.769531 151.816406 C 77.613281 172.5 77.664062 193.410156 76.890625 214.089844 Z M 76.890625 214.089844 "/>
<path style=" stroke:none;fill-rule:nonzero;fill:rgb(0%,8.235294%,47.843137%);fill-opacity:1;" d="M 156.601562 222.273438 C 155.734375 240.683594 153.902344 251.363281 151.808594 249.316406 C 150.121094 247.5 148.890625 238.410156 148.167969 224.316406 C 146.746094 196.589844 146.820312 168.183594 148.3125 140.910156 C 149.6875 116.136719 152.84375 111.363281 155.109375 129.316406 C 155.78125 134.546875 156.242188 141.363281 156.625 148.863281 C 158.289062 140 159.953125 131.136719 161.589844 122.046875 C 160.457031 103.636719 158.914062 89.773438 156.914062 80.683594 C 154.507812 69.773438 151.953125 67.5 149.347656 72.046875 C 145.734375 78.410156 143.085938 96.816406 141.519531 128.636719 C 140.144531 156.589844 139.953125 185.683594 140.554688 215.683594 C 140.988281 238.183594 142.023438 257.953125 143.902344 272.953125 C 146.746094 295.453125 150.023438 304.089844 153.6875 298.183594 C 157.375 292.273438 159.976562 272.046875 161.855469 242.046875 C 160.191406 233.863281 158.53125 225.910156 156.820312 217.5 C 156.746094 219.546875 156.675781 220.910156 156.601562 222.273438 Z M 156.601562 222.273438 "/>
<path style=" stroke:none;fill-rule:nonzero;fill:rgb(0%,8.235294%,47.843137%);fill-opacity:1;" d="M 194.625 209.773438 C 192.097656 209.773438 190.074219 228.410156 190.046875 251.816406 C 190.046875 275.453125 192.046875 294.546875 194.554688 294.546875 C 197.109375 294.546875 199.132812 275.910156 199.132812 252.273438 C 199.15625 228.863281 197.132812 210 194.625 209.773438 Z M 194.625 209.773438 "/>
</g>
</svg>
